<svg width="1202" height="1177" viewBox="0 0 1202 1177" fill="none" xmlns="http://www.w3.org/2000/svg">
    <circle cx="611.5" cy="610.5" r="246" stroke="white" stroke-opacity="0.1" id="circle-1" />
    <circle cx="611.5" cy="611.5" r="407" stroke="white" stroke-opacity="0.1" id="circle-2" />
    <circle cx="611.5" cy="611.5" r="565" stroke="white" stroke-opacity="0.1" id="circle-3" />
    <!-- webflow logo : center -->
    <g clip-path="url(#clip0_787_65)">
        <path fill-rule="evenodd" clip-rule="evenodd" d="M666 578L631.539 645H599.169L613.592 617.233H612.944C601.046 632.592 583.294 642.704 558 645V617.617C558 617.617 574.181 616.666 583.694 606.72H558V578.001H586.877V601.621L587.524 601.619L599.325 578.001H621.164V601.472L621.812 601.471L634.055 578H666Z" fill="#146EF5"/>
    </g>
    <!-- finsweet logo -->
    <g clip-path="url(#clip1_787_65)" id="logo-finsweet">
        <path d="M801 418C801 392.595 780.405 372 755 372C729.595 372 709 392.595 709 418C709 443.405 729.595 464 755 464C780.405 464 801 443.405 801 418Z" fill="white"/>
        <path d="M782.508 404.545V397.185H755.92V438.654H765.327V422.6H778.92V415.516H765.327V404.545H782.508Z" fill="#111111"/>
        <path d="M731.425 400.06V412.388C731.428 412.718 731.366 413.044 731.243 413.35C731.12 413.655 730.938 413.933 730.707 414.168C730.476 414.403 730.202 414.59 729.899 414.719C729.596 414.847 729.27 414.915 728.941 414.918H727.492V420.944H728.918C729.247 420.944 729.573 421.009 729.877 421.135C730.182 421.261 730.458 421.446 730.691 421.679C730.923 421.912 731.108 422.188 731.234 422.492C731.36 422.796 731.425 423.122 731.425 423.451V435.641C731.425 441.966 734.76 445.416 740.832 445.416H746.49V438.516H743.063C742.744 438.517 742.426 438.471 742.12 438.378C740.694 438.079 739.82 436.929 739.82 434.928V424.624C739.82 421.864 739.82 419.127 736.232 417.862C739.82 416.574 739.82 413.4 739.82 410.801V400.75C739.711 399.993 739.885 399.222 740.31 398.585C740.734 397.948 741.379 397.491 742.12 397.3C742.442 397.216 742.775 397.177 743.109 397.185H746.559V390.4H740.832C734.691 390.4 731.425 393.85 731.425 400.06Z" fill="#111111"/>
    </g>

    <!-- wized logo -->
    <g id="logo-wized">
    <path d="M91.9996 725C91.9996 699.595 71.4048 679 45.9998 679C20.5948 679 0 699.595 0 725C0 750.405 20.5948 771 45.9998 771C71.4048 771 91.9996 750.405 91.9996 725Z" fill="white"/>
    <path d="M38.7586 741.77H45.7991L51.7112 719.754L57.533 741.77H64.98L72.8327 709.905H66.0632L60.8278 732.054L55.0961 709.905H48.8678L43.3618 731.921L38.3072 709.905H30.9055L38.7586 741.77Z" fill="#111111"/>
    <path d="M19.1663 751.833H34.2601V746.152H26.7132V703.847H34.2601V698.166H19.1663V751.833Z" fill="#111111"/>
    </g>
    <!-- zapier logo -->
    <g clip-path="url(#clip2_787_65)" id="logo-zapier">
        <path d="M1156 798C1181.41 798 1202 777.405 1202 752C1202 726.595 1181.41 706 1156 706C1130.59 706 1110 726.595 1110 752C1110 777.405 1130.59 798 1156 798Z" fill="#FF4A00"/>
        <path d="M1161.75 752.01C1161.75 753.667 1161.45 755.311 1160.87 756.861C1159.31 757.448 1157.67 757.749 1156.01 757.75H1155.99C1154.33 757.75 1152.69 757.451 1151.14 756.867C1150.55 755.315 1150.25 753.669 1150.25 752.01V751.99C1150.25 750.333 1150.55 748.689 1151.13 747.139C1152.69 746.552 1154.33 746.251 1155.99 746.25H1156.01C1157.67 746.249 1159.31 746.549 1160.87 747.134C1161.45 748.685 1161.75 750.328 1161.75 751.986V752.005V752.01ZM1178.68 748.166H1165.25L1174.75 738.673C1174 737.628 1173.17 736.646 1172.26 735.738C1171.35 734.831 1170.37 734 1169.33 733.256L1159.83 742.746V729.32C1158.57 729.108 1157.29 729.001 1156.01 729H1155.99C1154.71 729.001 1153.43 729.108 1152.17 729.32V742.746L1142.67 733.252C1141.63 733.998 1140.65 734.83 1139.74 735.738C1138.83 736.646 1138 737.627 1137.26 738.672L1146.75 748.166H1133.32C1133.32 748.166 1133 750.688 1133 751.992V752.008C1133 753.29 1133.11 754.57 1133.32 755.834H1146.75L1137.25 765.327C1138.75 767.423 1140.58 769.255 1142.67 770.748L1152.17 761.254V774.68C1153.43 774.892 1154.7 774.999 1155.98 775H1156.02C1157.3 774.999 1158.57 774.892 1159.83 774.68V761.254L1169.33 770.748C1170.37 770.002 1171.35 769.17 1172.26 768.262C1173.17 767.354 1174 766.372 1174.75 765.327L1165.25 755.834H1178.68C1178.89 754.572 1179 753.295 1179 752.016V751.983C1179 750.704 1178.89 749.428 1178.68 748.166Z" fill="white"/>
    </g>
    <!-- figma logo -->
    <g id="figma-logo">
        <circle cx="823" cy="263" r="46" fill="#353535"/>
        <path d="M822.883 263.324C822.883 258.11 827.11 253.883 832.324 253.883C837.539 253.883 841.766 258.11 841.766 263.324C841.766 268.539 837.539 272.766 832.324 272.766C827.11 272.766 822.883 268.539 822.883 263.324Z" fill="#1ABCFE"/>
        <path d="M804 282.207C804 276.993 808.227 272.766 813.442 272.766H822.883V282.207C822.883 287.422 818.656 291.649 813.442 291.649C808.227 291.649 804 287.422 804 282.207Z" fill="#0ACF83"/>
        <path d="M822.883 235V253.883H832.324C837.539 253.883 841.766 249.656 841.766 244.442C841.766 239.227 837.539 235 832.324 235H822.883Z" fill="#FF7262"/>
        <path d="M804 244.442C804 249.656 808.227 253.883 813.442 253.883H822.883V235H813.442C808.227 235 804 239.227 804 244.442Z" fill="#F24E1E"/>
        <path d="M804 263.324C804 268.539 808.227 272.766 813.442 272.766H822.883V253.883H813.442C808.227 253.883 804 258.11 804 263.324Z" fill="#A259FF"/>
    </g>
    <!-- xano logo -->
    <g id="logo-xano">
        <circle cx="579" cy="46" r="46" fill="#1B62F8"/>
        <path d="M589.35 44.8728L610.499 25H591.911L580.056 36.1413L589.28 44.806L589.35 44.8728Z" fill="#FEFEFE"/>
        <path d="M589.28 47.3956L580.056 56.0635L591.911 67.202H610.499L589.35 47.3291L589.28 47.3956Z" fill="#FEFEFE"/>
        <path d="M565.589 25H547L569.454 46.102L547 67.2011H565.589L588.048 46.102L565.589 25Z" fill="#FEFEFE"/>
    </g>
    <!-- gsap logo -->
    <g id="logo-gsap">
        <circle cx="915" cy="876" r="46" fill="#202020"/>
        <path d="M914.5 861.75C914.5 869.896 907.896 876.5 899.75 876.5C891.604 876.5 885 869.896 885 861.75C885 853.604 891.604 847 899.75 847C907.896 847 914.5 853.604 914.5 861.75Z" fill="url(#paint0_linear_787_65)"/>
        <path d="M914.5 891.25C914.5 899.396 907.896 906 899.75 906C891.604 906 885 899.396 885 891.25C885 883.104 891.604 876.5 899.75 876.5C907.896 876.5 914.5 883.104 914.5 891.25Z" fill="url(#paint1_linear_787_65)"/>
        <path d="M944 861.75C944 869.896 937.396 876.5 929.25 876.5C921.104 876.5 914.5 869.896 914.5 861.75C914.5 853.604 921.104 847 929.25 847C937.396 847 944 853.604 944 861.75Z" fill="url(#paint2_linear_787_65)"/>
        <path d="M944 891.25C944 899.396 937.396 906 929.25 906C921.104 906 914.5 899.396 914.5 891.25C914.5 883.104 921.104 876.5 929.25 876.5C937.396 876.5 944 883.104 944 891.25Z" fill="url(#paint3_linear_787_65)"/>
    </g>
    <!-- relume logo logo -->
    <g id="logo-relume">
        <path d="M536.984 852.793C533.608 855.906 535.903 859.114 539.348 862.164C542.794 865.214 546.087 866.951 549.462 863.837C552.837 860.724 564.65 861.503 552.469 849.785C540.159 837.943 540.359 849.679 536.984 852.793Z" fill="#FF6948"/>
        <path d="M594.05 852.162C596.287 848.301 580.524 844.671 576.251 842.649C571.978 840.628 561.392 831.795 559.155 835.656C556.918 839.518 555.593 844.089 570.999 852.131C586.567 860.258 591.813 856.024 594.05 852.162Z" fill="#6248FF"/>
        <path d="M610.467 828.554L609.853 827.446C608.933 826.06 607.707 824.952 606.173 824.12L571.827 806.386C570.294 805.554 568.453 805.277 566.613 805H565.08C563.24 805 561.4 805.554 559.867 806.386L525.52 824.398C523.987 825.229 522.76 826.337 521.84 827.723L521.226 828.831C520.613 829.94 520 831.602 520 832.988V868.735C520 870.398 520.613 872.06 521.226 873.446L521.84 874.554C522.76 875.94 523.987 877.048 525.52 877.88L559.867 895.614C561.4 896.446 563.24 897 565.08 897H566.613C568.453 897 570.294 896.446 571.827 895.614L606.173 877.602C607.707 876.771 608.933 875.663 609.853 874.277L610.467 873.169C611.387 871.783 611.693 870.12 612 868.458V832.988C612 831.325 611.387 829.94 610.467 828.554Z" fill="black"/>
        <path d="M610.467 828.554L609.853 827.446C608.933 826.06 607.707 824.952 606.173 824.12L571.827 806.386C570.294 805.554 568.453 805.277 566.613 805H565.08C563.24 805 561.4 805.554 559.867 806.386L525.52 824.398C523.987 825.229 522.76 826.337 521.84 827.723L521.226 828.831C520.613 829.94 520 831.602 520 832.988V868.735C520 870.398 520.613 872.06 521.226 873.446L521.84 874.554C522.76 875.94 523.987 877.048 525.52 877.88L559.867 895.614C561.4 896.446 563.24 897 565.08 897H566.613C568.453 897 570.294 896.446 571.827 895.614L606.173 877.602C607.707 876.771 608.933 875.663 609.853 874.277L610.467 873.169C611.387 871.783 611.693 870.12 612 868.458V832.988C612 831.325 611.387 829.94 610.467 828.554Z" fill="url(#paint4_linear_787_65)"/>
        <path d="M603.367 832.138L602.851 831.207C602.078 830.043 601.048 829.111 599.759 828.412L570.896 813.509C569.608 812.81 568.062 812.578 566.515 812.345H565.227C563.68 812.345 562.134 812.81 560.846 813.509L531.983 828.645C530.695 829.344 529.664 830.275 528.891 831.44L528.375 832.371C527.86 833.303 527.344 834.7 527.344 835.864V865.903C527.344 867.301 527.86 868.698 528.375 869.862L528.891 870.794C529.664 871.958 530.695 872.89 531.983 873.588L560.846 888.491C562.134 889.19 563.68 889.656 565.227 889.656H566.515C568.062 889.656 569.608 889.19 570.896 888.491L599.759 873.355C601.048 872.657 602.078 871.725 602.851 870.561L603.367 869.629C604.14 868.465 604.398 867.068 604.655 865.671V835.864C604.655 834.467 604.14 833.303 603.367 832.138Z" fill="#161616"/>
        <path d="M595.378 867.067L570.381 880.108V853.329L596.151 839.822V866.136V866.834L595.378 867.067Z" fill="#F1F0EE"/>
        <path d="M565.484 820.029L566 819.796L566.515 820.029L591.77 833.069L566 846.576L540.229 833.069L565.484 820.029Z" fill="#F1F0EE"/>
    </g>
    <!-- Typescript logo -->
    <g clip-path="url(#clip3_787_65)" id="typescript-logo">
        <path d="M165 644.5V644.5C165 669.629 185.371 690 210.5 690V690V690C235.629 690 256 669.629 256 644.5V644.5V644.5C256 619.371 235.629 599 210.5 599V599V599C185.371 599 165 619.371 165 644.5V644.5Z" fill="#007ACC"/>
        <path d="M178.679 627.649L178.65 631.376H184.572H190.494V648.203V665.031H194.683H198.872V648.203V631.376H204.794H210.717V627.721C210.717 625.699 210.673 624.009 210.615 623.966C210.572 623.908 203.364 623.879 194.625 623.893L178.722 623.937L178.679 627.649Z" fill="white"/>
        <path d="M231.983 623.831C234.295 624.409 236.057 625.434 237.675 627.11C238.512 628.005 239.755 629.638 239.856 630.028C239.885 630.143 235.927 632.801 233.529 634.289C233.442 634.346 233.096 633.971 232.706 633.393C231.536 631.689 230.308 630.952 228.43 630.822C225.671 630.634 223.895 632.079 223.909 634.491C223.909 635.199 224.01 635.618 224.299 636.195C224.906 637.452 226.032 638.203 229.571 639.734C236.086 642.536 238.873 644.385 240.607 647.014C242.542 649.946 242.976 654.626 241.661 658.108C240.217 661.892 236.635 664.463 231.593 665.315C230.033 665.59 226.336 665.546 224.66 665.243C221.006 664.593 217.539 662.788 215.401 660.419C214.563 659.494 212.931 657.082 213.032 656.909C213.076 656.851 213.451 656.62 213.87 656.374C214.275 656.143 215.806 655.262 217.25 654.424L219.865 652.908L220.413 653.716C221.179 654.886 222.855 656.49 223.866 657.024C226.769 658.555 230.756 658.339 232.72 656.576C233.558 655.811 233.905 655.016 233.905 653.846C233.905 652.792 233.775 652.33 233.226 651.535C232.518 650.524 231.073 649.672 226.971 647.895C222.277 645.873 220.255 644.616 218.406 642.623C217.337 641.468 216.326 639.619 215.907 638.073C215.56 636.788 215.473 633.566 215.748 632.266C216.716 627.731 220.139 624.568 225.079 623.629C226.682 623.325 230.409 623.441 231.983 623.831Z" fill="white"/>
    </g>
    <!-- relume logo logo -->
    <g id="javascript-logo">
        <path d="M355 473.5C355 448.371 375.371 428 400.5 428V428C425.629 428 446 448.371 446 473.5V473.5C446 498.629 425.629 519 400.5 519V519C375.371 519 355 498.629 355 473.5V473.5Z" fill="#F7DF1E"/>
        <path d="M370.47 486.986L377.434 482.771C378.778 485.153 380 487.169 382.931 487.169C385.741 487.169 387.513 486.07 387.513 481.794V452.718H396.065V481.915C396.065 490.772 390.873 494.804 383.298 494.804C376.457 494.804 372.486 491.261 370.47 486.985M400.71 486.069L407.673 482.038C409.506 485.032 411.888 487.23 416.103 487.23C419.646 487.23 421.906 485.459 421.906 483.015C421.906 480.083 419.584 479.045 415.675 477.335L413.537 476.418C407.368 473.792 403.275 470.493 403.275 463.53C403.275 457.116 408.162 452.229 415.798 452.229C421.234 452.229 425.144 454.122 427.953 459.07L421.295 463.347C419.828 460.72 418.241 459.682 415.797 459.682C413.293 459.682 411.704 461.27 411.704 463.347C411.704 465.912 413.293 466.951 416.957 468.539L419.095 469.455C426.365 472.571 430.457 475.747 430.457 482.893C430.457 490.591 424.41 494.805 416.286 494.805C408.345 494.805 403.214 491.018 400.709 486.07" fill="black"/>
    </g>

    <defs>
        <linearGradient id="paint0_linear_787_65" x1="887.983" y1="856.944" x2="937.868" y2="882.632" gradientUnits="userSpaceOnUse">
            <stop stop-color="#11D84B"/>
            <stop offset="1" stop-color="#B8FF96"/>
        </linearGradient>
        <linearGradient id="paint1_linear_787_65" x1="887.983" y1="856.944" x2="937.868" y2="882.632" gradientUnits="userSpaceOnUse">
            <stop stop-color="#11D84B"/>
            <stop offset="1" stop-color="#B8FF96"/>
        </linearGradient>
        <linearGradient id="paint2_linear_787_65" x1="887.983" y1="856.944" x2="937.868" y2="882.632" gradientUnits="userSpaceOnUse">
            <stop stop-color="#11D84B"/>
            <stop offset="1" stop-color="#B8FF96"/>
        </linearGradient>
        <linearGradient id="paint3_linear_787_65" x1="887.983" y1="856.944" x2="937.868" y2="882.632" gradientUnits="userSpaceOnUse">
            <stop stop-color="#11D84B"/>
            <stop offset="1" stop-color="#B8FF96"/>
        </linearGradient>
        <linearGradient id="paint4_linear_787_65" x1="507.288" y1="837.408" x2="608.358" y2="852.302" gradientUnits="userSpaceOnUse">
            <stop stop-color="#FF7448"/>
            <stop offset="0.25" stop-color="#FF5E48"/>
            <stop offset="0.5" stop-color="#FF4848"/>
            <stop offset="0.75" stop-color="#B048A3"/>
            <stop offset="1" stop-color="#6248FF"/>
        </linearGradient>
        <clipPath id="clip0_787_65">
            <rect width="108" height="67" fill="white" transform="translate(558 578)"/>
        </clipPath>
        <clipPath id="clip1_787_65">
            <rect width="92" height="92" fill="white" transform="translate(709 372)"/>
        </clipPath>
        <clipPath id="clip2_787_65">
            <rect width="92" height="92" fill="white" transform="translate(1110 706)"/>
        </clipPath>
        <clipPath id="clip3_787_65">
            <rect width="91" height="91" fill="white" transform="translate(165 599)"/>
        </clipPath>
    </defs>
</svg>
